<svg xmlns="http://www.w3.org/2000/svg" viewBox="0 0 76.46 83.51"><defs><style>.cls-1{fill:#060305;}</style></defs><title>codefinger icon</title><g id="Lag_2" data-name="Lag 2"><g id="Lag_1-2" data-name="Lag 1"><path class="cls-1" d="M33.2.52a9.7,9.7,0,0,1,1-.51V83.5a9.7,9.7,0,0,1-1-.51l-5-2.9V20a8,8,0,0,0-8,8v47.5l-6-3.49V40.72a8,8,0,0,0-8,8V67.37L5,66.73A10,10,0,0,1,0,58V25.5a10.06,10.06,0,0,1,5-8.72Z"/><path class="cls-1" d="M76.46,25.5V58a10.06,10.06,0,0,1-5,8.71l-1.25.72V48.72a8,8,0,0,0-8-8V72.07l-6,3.49V28a8,8,0,0,0-8-8V80.18L43.27,83a8.53,8.53,0,0,1-1.05.52V0a8.53,8.53,0,0,1,1.05.52L71.43,16.78A10.07,10.07,0,0,1,76.46,25.5Z"/></g></g></svg>