<svg xmlns="http://www.w3.org/2000/svg" viewBox="0 0 100 100"><defs><style>.cls-1{fill:#fff;}.cls-2{fill:#4d61ac;}.cls-3{fill:#4f6db4;}.cls-4{fill:#ecebea;}.cls-5{font-size:10.9px;fill:#2a1000;font-family:Phosphate-Solid, Phosphate;}</style></defs><title>css2ny</title><g id="Lag_2" data-name="Lag 2"><g id="Lag_1-2" data-name="Lag 1"><circle class="cls-1" cx="50" cy="50" r="50"/><polygon id="polygon2989" class="cls-2" points="50.03 80.6 34 76.17 30.38 36.12 69.62 36.08 66.09 76.12 50.03 80.6"/><polygon id="polygon2991" class="cls-3" points="63.03 73.58 66.04 39.35 50 39.37 50.05 77.19 63.03 73.58"/><polygon id="polygon2993" class="cls-4" points="38.59 54.24 39.03 59.15 50.03 59.14 50.02 54.23 38.59 54.24"/><polygon id="polygon2995" class="cls-4" points="37.69 44.3 38.15 49.21 50.02 49.2 50.01 44.28 49.99 44.28 37.69 44.3"/><polygon id="polygon2997" class="cls-4" points="50.03 66.98 50.01 66.99 44.54 65.52 44.19 61.6 41.53 61.6 39.26 61.61 39.95 69.32 50.02 72.1 50.04 72.09 50.03 66.98"/><polygon id="polygon3005" class="cls-1" points="61.42 54.21 62.3 44.27 49.99 44.28 50 49.2 56.92 49.19 56.48 54.22 50 54.23 50.01 59.14 56.06 59.13 55.49 65.5 50.02 66.99 50.02 72.1 60.09 69.3 60.16 68.47 61.3 55.53 61.42 54.21"/><text class="cls-5" transform="translate(41.75 28.49)">css</text></g></g></svg>