<svg xmlns="http://www.w3.org/2000/svg" viewBox="0 0 96 96"><defs><style>.cls-1{fill:#ff0042;}.cls-2{fill:#f7f7f7;}</style></defs><title>github</title><g id="Lag_2" data-name="Lag 2"><g id="github"><circle class="cls-1" cx="48" cy="48" r="48"/><path class="cls-2" d="M48,23.5A24.5,24.5,0,1,0,72.5,48,24.5,24.5,0,0,0,48,23.5ZM62.55,62.55A20.57,20.57,0,0,1,56,67a18.77,18.77,0,0,1-1.9.69V64a4.81,4.81,0,0,0-2-4.26,22.25,22.25,0,0,0,2.28-.33,16.41,16.41,0,0,0,2.2-.62,11.46,11.46,0,0,0,2.08-1,8.78,8.78,0,0,0,1.78-1.46,8.66,8.66,0,0,0,1.42-2,11.4,11.4,0,0,0,.91-2.72,17.3,17.3,0,0,0,.33-3.51,8.93,8.93,0,0,0-2.41-6.31,8.4,8.4,0,0,0-.24-6.25l-.6-.07a5.87,5.87,0,0,0-2.24.53,17.11,17.11,0,0,0-3.62,2,21.89,21.89,0,0,0-5.91-.79,21.48,21.48,0,0,0-5.89.79,20.67,20.67,0,0,0-2.4-1.43A12.47,12.47,0,0,0,38,35.74a5.92,5.92,0,0,0-1.27-.25,4.47,4.47,0,0,0-.75,0l-.24,0a8.31,8.31,0,0,0-.24,6.25,8.94,8.94,0,0,0-2.42,6.31,16.59,16.59,0,0,0,.34,3.51,10.57,10.57,0,0,0,.91,2.72,8.37,8.37,0,0,0,1.42,2,9,9,0,0,0,1.77,1.46,11.11,11.11,0,0,0,2.08,1,19.11,19.11,0,0,0,2.2.62,22.88,22.88,0,0,0,2.29.33,4.8,4.8,0,0,0-2,4.26v3.75A20.2,20.2,0,0,1,40,67a20.6,20.6,0,1,1,22.56-4.41Z"/></g></g></svg>