<?xml version="1.0" encoding="utf-8"?>
<!-- Generator: Adobe Illustrator 22.0.1, SVG Export Plug-In . SVG Version: 6.00 Build 0)  -->
<svg version="1.1" id="Lag_1" xmlns="http://www.w3.org/2000/svg" xmlns:xlink="http://www.w3.org/1999/xlink" x="0px" y="0px"
	 viewBox="0 0 111.6 111.6" style="enable-background:new 0 0 111.6 111.6;" xml:space="preserve">
<style type="text/css">
	.st0{fill:#FFFFFF;}
	.st1{fill:#D45435;}
	.st2{fill:#D8683E;}
	.st3{fill:#ECEBEA;}
	.st4{fill:#2A1000;}
	.st5{font-family:'Phosphate-Solid';}
	.st6{font-size:10.9px;}
</style>
<title>htmlny</title>
<g id="Lag_2_1_">
	
		<image style="overflow:visible;opacity:0;" width="140" height="140" xlink:href="378680627F60C120.png"  transform="matrix(1 0 0 1 -8 -7.4)">
	</image>
	<g>
		<g>
			<g id="Lag_1-2_9_">
				
					<image style="overflow:visible;opacity:0.51;enable-background:new    ;" width="471" height="471" xlink:href="378680627F60C121.png"  transform="matrix(0.2369 0 0 0.2369 0 0)">
				</image>
				<circle class="st0" cx="55.7" cy="54.8" r="50"/>
				<polygon id="polygon3028_12_" class="st1" points="75.4,40.9 71.8,80.9 55.7,85.4 39.7,80.9 36.1,40.9 				"/>
				<polygon id="polygon3030_12_" class="st2" points="55.7,82 68.7,78.4 71.8,44.2 55.7,44.2 				"/>
				<polygon id="polygon3032_12_" class="st3" points="48.8,54 55.7,54 55.7,49.1 55.7,49.1 43.4,49.1 43.5,50.4 44.8,63.9 
					55.7,63.9 55.7,59 49.2,59 				"/>
				<polygon id="polygon3034_12_" class="st3" points="49.9,66.4 47.2,66.4 45,66.4 45.7,74.1 55.7,76.9 55.7,76.9 55.7,71.8 
					55.7,71.8 50.2,70.3 				"/>
				<polygon id="polygon3044_12_" class="st0" points="55.7,63.9 61.8,63.9 61.2,70.3 55.7,71.8 55.7,76.9 65.8,74.1 65.9,73.2 
					67,60.3 67.1,59 65.8,59 55.7,59 				"/>
				<polygon id="polygon3046_12_" class="st0" points="55.7,54 55.7,54 67.6,54 67.6,54 67.6,54 67.7,52.9 67.9,50.4 68,49.1 
					55.7,49.1 55.7,52.1 				"/>
				<text transform="matrix(1 0 0 1 43.24 33.28)" class="st4 st5 st6">html</text>
			</g>
		</g>
	</g>
</g>
</svg>
