<svg xmlns="http://www.w3.org/2000/svg" viewBox="0 0 100 100"><defs><style>.cls-1{fill:#fff;}.cls-2{fill:#d45435;}.cls-3{fill:#d8683e;}.cls-4{fill:#ecebea;}.cls-5{font-size:10.9px;fill:#2a1000;font-family:Phosphate-Solid, Phosphate;}</style></defs><title>html2ny</title><g id="Lag_2" data-name="Lag 2"><g id="Lag_1-2" data-name="Lag 1"><circle class="cls-1" cx="50" cy="50" r="50"/><polygon id="polygon3028" class="cls-2" points="69.62 36.09 66.04 76.14 49.98 80.59 33.95 76.14 30.38 36.09 69.62 36.09"/><polygon id="polygon3030" class="cls-3" points="50 77.19 62.98 73.59 66.04 39.37 50 39.37 50 77.19"/><polygon id="polygon3032" class="cls-4" points="43.05 49.19 50 49.19 50 44.28 49.98 44.28 37.68 44.28 37.8 45.6 39.01 59.13 50 59.13 50 54.22 43.5 54.22 43.05 49.19"/><polygon id="polygon3034" class="cls-4" points="44.16 61.59 41.5 61.59 39.23 61.59 39.92 69.3 49.98 72.09 50 72.09 50 66.98 49.98 66.98 44.51 65.51 44.16 61.59"/><polygon id="polygon3044" class="cls-1" points="49.98 59.13 56.03 59.13 55.46 65.5 49.98 66.98 49.98 72.09 60.05 69.3 60.13 68.47 61.28 55.54 61.4 54.22 60.08 54.22 49.98 54.22 49.98 59.13"/><polygon id="polygon3046" class="cls-1" points="49.98 49.18 49.98 49.19 61.83 49.19 61.83 49.19 61.85 49.19 61.95 48.09 62.17 45.6 62.29 44.28 49.98 44.28 49.98 47.33 49.98 49.18"/><text class="cls-5" transform="translate(37.5 28.5)">html</text></g></g></svg>