<svg xmlns="http://www.w3.org/2000/svg" viewBox="0 0 100 100"><defs><style>.cls-1{fill:#fff;}.cls-2{fill:#d0b744;}.cls-3{fill:#f7d64d;}.cls-4{fill:#ecebea;}.cls-5{font-size:10.9px;fill:#2a1000;font-family:Phosphate-Solid, Phosphate;}.cls-6{letter-spacing:-0.12em;}</style></defs><title>javascript2ny</title><g id="Lag_2" data-name="Lag 2"><g id="Lag_1-2" data-name="Lag 1"><circle class="cls-1" cx="50" cy="50" r="50"/><g id="g3768"><path id="path3770" class="cls-2" d="M30.29,35.87c4.41-.19,8.82.05,13.23,0,4.87-.15,9.73,0,14.6,0,3.86,0,7.73,0,11.59,0-1.22,13.4-2.44,26.81-3.57,40.22C61,77.55,55.79,79,50.61,80.46a3,3,0,0,1-2-.15q-7.38-2.12-14.77-4.18Q31.94,56,30.29,35.87m19.79,3.5C49.9,46,50.06,52.59,50,59.2c0,6-.09,12.1.07,18.14,4.35-1,8.64-2.28,12.93-3.53,1.08-11.48,2.13-23,3-34.45-5.32-.05-10.64,0-16,0M44.55,65.19c-2.55-.7-5.08-1.5-7.67-2.06A28.11,28.11,0,0,0,37,67.74c3.79.92,7.5,2.14,11.3,3,0-8.76,0-17.51,0-26.27l-3.71-.08c-.14,6.91,0,13.83-.07,20.75Z"/></g><g id="g3796"><path id="path3798" class="cls-3" d="M50.08,39.37c5.32,0,10.64,0,16,0-.9,11.49-2,23-3,34.45-4.29,1.24-8.58,2.5-12.93,3.53-.16-6,0-12.1-.07-18.14.05-6.61-.1-13.22.08-19.83m1.49,5.14q0,8.54,0,17.08c2.6-.42,5.19-.9,7.78-1.37,0,1.33-.09,2.65-.15,4-2.52.67-5,1.37-7.58,2,0,1.53,0,3.06,0,4.59,3.2-.72,6.34-1.62,9.52-2.42.4-.19,1.16-.16,1.13-.79.38-4.09.62-8.2,1-12.3-2.63.22-5.23.66-7.86.84,0-2.32,0-4.65,0-7h8.3c.18-1.55.33-3.11.45-4.66-4.18,0-8.37,0-12.55,0Z"/></g><path id="path3806" class="cls-4" d="M44.55,65.19c.06-6.92-.08-13.84.07-20.75l3.71.08c0,8.76,0,17.51,0,26.27-3.8-.91-7.51-2.12-11.3-3a28.11,28.11,0,0,1-.13-4.61C39.47,63.69,42,64.49,44.55,65.19Z"/><text class="cls-5" transform="translate(22.62 28.51)">j<tspan class="cls-6" x="4.13" y="0">av</tspan><tspan x="15.46" y="0">ascript</tspan></text></g></g></svg>