<svg xmlns="http://www.w3.org/2000/svg" viewBox="0 0 96 96"><defs><style>.cls-1{fill:#ff0042;}.cls-2{fill:#f7f7f7;}</style></defs><title>linkedin</title><g id="Lag_2" data-name="Lag 2"><g id="linkedin"><circle class="cls-1" cx="48" cy="48" r="48"/><path class="cls-2" d="M64.27,23.5H31.73a8.25,8.25,0,0,0-8.23,8.23V64.27a8.25,8.25,0,0,0,8.23,8.23H64.27a8.25,8.25,0,0,0,8.23-8.23V31.73A8.25,8.25,0,0,0,64.27,23.5ZM41.88,63.31H35.75V41.88h6.13Zm-3.07-24.5a3.06,3.06,0,1,1,3.07-3.06A3.06,3.06,0,0,1,38.81,38.81Zm24.5,24.5H57.19V51.06a3.07,3.07,0,0,0-6.13,0V63.31H44.94V41.88h6.12v3.8c1.27-1.74,3.2-3.8,5.36-3.8,3.81,0,6.89,3.42,6.89,7.65V63.31Z"/></g></g></svg>