<svg xmlns="http://www.w3.org/2000/svg" xmlns:xlink="http://www.w3.org/1999/xlink" viewBox="0 0 100 100"><defs><style>.cls-1{fill:none;}.cls-2{fill:#fff;}.cls-3{fill:#669961;}.cls-4{fill:#303030;}.cls-5{fill:url(#Ikke-navngivet_forløb_7);}.cls-6{clip-path:url(#clip-path);}.cls-7{fill:url(#Ikke-navngivet_forløb_2);}.cls-8{fill:url(#Ikke-navngivet_forløb_6);}.cls-9{fill:url(#Ikke-navngivet_forløb_6-2);}.cls-10{fill:url(#Ikke-navngivet_forløb_6-3);}.cls-11{fill:url(#Ikke-navngivet_forløb_6-4);}.cls-12{fill:url(#Ikke-navngivet_forløb_7-2);}.cls-13{font-size:10.9px;fill:#2a1000;font-family:Phosphate-Solid, Phosphate;}</style><linearGradient id="Ikke-navngivet_forløb_7" x1="45.39" y1="1207.55" x2="41.09" y2="1216.33" gradientTransform="translate(0 -1151.89)" gradientUnits="userSpaceOnUse"><stop offset="0" stop-color="#47824c"/><stop offset="0.33" stop-color="#49864e"/><stop offset="0.64" stop-color="#4a9053"/><stop offset="0.93" stop-color="#4ba15a"/><stop offset="1" stop-color="#4ba55b"/></linearGradient><clipPath id="clip-path"><path class="cls-1" d="M43.74,53.61a.57.57,0,0,0-.58,0L38.4,56.36a.58.58,0,0,0-.29.5v5.5a.58.58,0,0,0,.29.5l4.76,2.75a.58.58,0,0,0,.58,0l4.76-2.75a.58.58,0,0,0,.29-.5v-5.5a.58.58,0,0,0-.29-.5Z"/></clipPath><linearGradient id="Ikke-navngivet_forløb_2" x1="42.73" y1="1212.14" x2="54.8" y2="1203.22" gradientTransform="translate(0 -1151.89)" gradientUnits="userSpaceOnUse"><stop offset="0.14" stop-color="#47824c"/><stop offset="0.4" stop-color="#579a56"/><stop offset="0.71" stop-color="#67af5b"/><stop offset="0.91" stop-color="#6cb55b"/></linearGradient><linearGradient id="Ikke-navngivet_forløb_6" x1="37.95" y1="1204.51" x2="48.96" y2="1204.51" gradientTransform="translate(0 -1151.89)" gradientUnits="userSpaceOnUse"><stop offset="0.09" stop-color="#6cb55b"/><stop offset="0.29" stop-color="#67af5b"/><stop offset="0.6" stop-color="#579a56"/><stop offset="0.86" stop-color="#47824c"/></linearGradient><linearGradient id="Ikke-navngivet_forløb_6-2" x1="37.95" y1="1211.5" x2="48.96" y2="1211.5" xlink:href="#Ikke-navngivet_forløb_6"/><linearGradient id="Ikke-navngivet_forløb_6-3" x1="37.95" y1="1214.64" x2="48.96" y2="1214.64" xlink:href="#Ikke-navngivet_forløb_6"/><linearGradient id="Ikke-navngivet_forløb_6-4" x1="37.95" y1="1216.06" x2="48.96" y2="1216.06" xlink:href="#Ikke-navngivet_forløb_6"/><linearGradient id="Ikke-navngivet_forløb_7-2" x1="50.56" y1="1207.29" x2="43.77" y2="1221.14" xlink:href="#Ikke-navngivet_forløb_7"/></defs><title>node2ny</title><g id="Lag_2" data-name="Lag 2"><g id="Lag_1-2" data-name="Lag 1"><circle class="cls-2" cx="50" cy="50" r="50"/><path class="cls-3" d="M49.71,77.16a1,1,0,0,1-.47-.13l-1.51-.89c-.23-.13-.12-.17,0-.2a3,3,0,0,0,.68-.31.12.12,0,0,1,.11,0l1.16.69a.15.15,0,0,0,.14,0l4.52-2.61a.14.14,0,0,0,.07-.12V68.39a.15.15,0,0,0-.07-.12l-4.51-2.6a.14.14,0,0,0-.14,0l-4.51,2.61a.15.15,0,0,0-.07.12v5.21a.14.14,0,0,0,.07.12l1.24.71c.67.34,1.08-.06,1.08-.46V68.84a.13.13,0,0,1,.13-.13h.57a.13.13,0,0,1,.13.13V74a1.25,1.25,0,0,1-1.34,1.41,1.93,1.93,0,0,1-1-.28l-1.18-.68a1,1,0,0,1-.47-.82V68.39a1,1,0,0,1,.47-.82L49.24,65a1,1,0,0,1,.95,0l4.52,2.61a1,1,0,0,1,.47.82v5.21a1,1,0,0,1-.47.82L50.19,77A1,1,0,0,1,49.71,77.16Z"/><path class="cls-3" d="M51.11,73.57c-2,0-2.39-.91-2.39-1.67a.13.13,0,0,1,.13-.13h.58a.13.13,0,0,1,.13.11c.09.59.35.89,1.55.89,1,0,1.36-.22,1.36-.72,0-.29-.11-.51-1.59-.65-1.24-.12-2-.4-2-1.38s.77-1.45,2.06-1.45c1.45,0,2.16.5,2.25,1.58a.13.13,0,0,1-.13.14h-.59a.13.13,0,0,1-.13-.1c-.14-.63-.48-.83-1.41-.83s-1.16.36-1.16.63.14.42,1.55.61,2,.44,2,1.42S52.54,73.57,51.11,73.57Z"/><path class="cls-3" d="M57.62,68.11a.87.87,0,1,1-.87-.87A.87.87,0,0,1,57.62,68.11Zm-1.6,0a.73.73,0,1,0,.73-.73A.73.73,0,0,0,56,68.11Zm.4-.49h.34c.12,0,.34,0,.34.26a.22.22,0,0,1-.18.24c.13,0,.14.1.16.22a1,1,0,0,0,.05.26h-.21s0-.29,0-.31,0-.08-.1-.08h-.17v.39h-.19v-1Zm.18.43h.15a.13.13,0,0,0,.15-.14c0-.13-.09-.13-.14-.13h-.16V68Z"/><path class="cls-4" d="M35.73,56.77a.58.58,0,0,0-.29-.5l-4.79-2.76a.57.57,0,0,0-.26-.08h0a.57.57,0,0,0-.26.08l-4.79,2.76a.58.58,0,0,0-.29.5v7.42a.28.28,0,0,0,.14.25.28.28,0,0,0,.29,0l2.85-1.63a.58.58,0,0,0,.29-.5V58.84a.58.58,0,0,1,.29-.5l1.21-.7a.58.58,0,0,1,.29-.08.57.57,0,0,1,.29.08l1.21.7a.58.58,0,0,1,.29.5v3.47a.58.58,0,0,0,.29.5l2.85,1.63a.28.28,0,0,0,.29,0,.29.29,0,0,0,.14-.25Z"/><path class="cls-4" d="M58.77,46.57a.29.29,0,0,0-.43.25v7.35a.2.2,0,0,1-.3.18l-1.2-.69a.58.58,0,0,0-.58,0l-4.79,2.76a.58.58,0,0,0-.29.5v5.53a.58.58,0,0,0,.29.5l4.79,2.77a.58.58,0,0,0,.58,0L61.63,63a.58.58,0,0,0,.29-.5V48.67a.58.58,0,0,0-.3-.51Zm-.44,14.06a.14.14,0,0,1-.07.13l-1.64.95a.14.14,0,0,1-.14,0l-1.64-.95a.14.14,0,0,1-.07-.13v-1.9a.14.14,0,0,1,.07-.13l1.64-.95a.14.14,0,0,1,.14,0l1.64.95a.14.14,0,0,1,.07.13v1.9Z"/><path class="cls-4" d="M74.72,58.69a.58.58,0,0,0,.29-.5V56.85a.58.58,0,0,0-.29-.5L70,53.58a.58.58,0,0,0-.58,0l-4.79,2.76a.58.58,0,0,0-.29.5v5.53a.58.58,0,0,0,.29.5l4.76,2.71a.58.58,0,0,0,.57,0L72.8,64a.29.29,0,0,0,0-.5L68,60.72a.29.29,0,0,1-.15-.25V58.74a.29.29,0,0,1,.14-.25l1.5-.86a.29.29,0,0,1,.29,0l1.5.86a.29.29,0,0,1,.14.25V60.1a.29.29,0,0,0,.43.25Z"/><path class="cls-3" d="M69.6,58.43a.11.11,0,0,1,.11,0l.92.53a.11.11,0,0,1,.06.1v1.06a.11.11,0,0,1-.06.1l-.92.53a.11.11,0,0,1-.11,0l-.92-.53a.11.11,0,0,1-.06-.1V59.05a.11.11,0,0,1,.06-.1Z"/><path id="_Kurve_" data-name="&lt;Kurve&gt;" class="cls-5" d="M43.74,53.61a.57.57,0,0,0-.58,0L38.4,56.36a.58.58,0,0,0-.29.5v5.5a.58.58,0,0,0,.29.5l4.76,2.75a.58.58,0,0,0,.58,0l4.76-2.75a.58.58,0,0,0,.29-.5v-5.5a.58.58,0,0,0-.29-.5Z"/><g class="cls-6"><path class="cls-1" d="M43.15,53.61l-4.77,2.75a.59.59,0,0,0-.31.5v5.5a.56.56,0,0,0,.15.37l5.36-9.17A.58.58,0,0,0,43.15,53.61Z"/><path class="cls-1" d="M43.61,65.67l.13-.06,4.77-2.75a.59.59,0,0,0,.3-.5v-5.5a.57.57,0,0,0-.17-.4Z"/><path class="cls-7" d="M48.51,56.36l-4.78-2.75-.15-.06-5.36,9.17a.66.66,0,0,0,.16.13l4.78,2.75a.58.58,0,0,0,.44.06l5-9.21Z"/></g><g class="cls-6"><path class="cls-1" d="M48.81,62.36v-5.5a.59.59,0,0,0-.3-.5l-4.78-2.75a.57.57,0,0,0-.18-.06l5.24,8.95A.52.52,0,0,0,48.81,62.36Z"/><path class="cls-1" d="M38.38,56.36a.59.59,0,0,0-.31.5v5.5a.6.6,0,0,0,.31.5l4.78,2.75a.58.58,0,0,0,.37.07l-5.13-9.34Z"/><polygon class="cls-8" points="43.01 52.6 42.94 52.64 43.03 52.64 43.01 52.6"/><path class="cls-9" d="M48.51,62.86a.6.6,0,0,0,.28-.37l-5.24-8.95a.58.58,0,0,0-.4.06l-4.74,2.73,5.13,9.34a.58.58,0,0,0,.21-.07Z"/><polygon class="cls-10" points="48.96 62.77 48.93 62.72 48.93 62.79 48.96 62.77"/><path class="cls-11" d="M48.51,62.86l-4.77,2.75a.58.58,0,0,1-.21.07l.09.17,5.3-3.07v-.07l-.13-.22A.6.6,0,0,1,48.51,62.86Z"/><path class="cls-12" d="M48.51,62.86l-4.77,2.75a.58.58,0,0,1-.21.07l.09.17,5.3-3.07v-.07l-.13-.22A.6.6,0,0,1,48.51,62.86Z"/></g><text class="cls-13" transform="translate(28.32 31.92)">node . js</text></g></g></svg>