<svg xmlns="http://www.w3.org/2000/svg" viewBox="0 0 100 100"><defs><style>.cls-1{fill:#fff;}.cls-2{fill:#46b7dc;}.cls-3{font-size:10.9px;fill:#2a1000;font-family:Phosphate-Solid, Phosphate;}</style></defs><title>reakt2ny</title><g id="Lag_2" data-name="Lag 2"><g id="Lag_1-2" data-name="Lag 1"><circle class="cls-1" cx="50" cy="50" r="50"/><circle class="cls-2" cx="50.01" cy="61.16" r="3.82"/><path class="cls-2" d="M50,69.92a43.25,43.25,0,0,1-13.56-1.83,17.23,17.23,0,0,1-5.59-3,5.41,5.41,0,0,1-2.24-3.93c0-2.53,2.77-5,7.42-6.61a44,44,0,0,1,14-2.06,43.6,43.6,0,0,1,13.78,2,17.51,17.51,0,0,1,5.4,2.85,5.19,5.19,0,0,1,2.2,3.81c0,2.63-3.1,5.28-8.09,6.93A43.91,43.91,0,0,1,50,69.92Zm0-15.6a42.72,42.72,0,0,0-13.36,2c-4.28,1.49-6.2,3.53-6.2,4.89s2.06,3.65,6.58,5.19a41.59,41.59,0,0,0,13,1.74,41.91,41.91,0,0,0,12.71-1.73c4.7-1.56,6.84-3.79,6.84-5.2A3.55,3.55,0,0,0,68,58.76a15.66,15.66,0,0,0-4.83-2.53A42.13,42.13,0,0,0,50,54.31Z"/><path class="cls-2" d="M41.34,80.21a4,4,0,0,1-2-.5c-2.18-1.26-2.95-4.9-2-9.73a43.88,43.88,0,0,1,5.19-13.12A43.79,43.79,0,0,1,51.1,45.93a17.38,17.38,0,0,1,5.17-3.26,5.19,5.19,0,0,1,4.39,0c2.28,1.31,3,5.33,2,10.47a44.08,44.08,0,0,1-5.06,12.42,43.41,43.41,0,0,1-8.36,10.83,17.25,17.25,0,0,1-5.38,3.34A7.42,7.42,0,0,1,41.34,80.21Zm1.91-22.9.79.46a42.52,42.52,0,0,0-5,12.55c-.84,4.45,0,7.13,1.14,7.81a2.25,2.25,0,0,0,1.13.26c1.51,0,3.9-1,6.65-3.36a41.62,41.62,0,0,0,8-10.37,42.14,42.14,0,0,0,4.86-11.87c1-4.85.14-7.82-1.09-8.52a3.56,3.56,0,0,0-2.85.14,15.54,15.54,0,0,0-4.6,2.92A42,42,0,0,0,44,57.77Z"/><path class="cls-2" d="M58.68,80.23c-2.07,0-4.7-1.25-7.44-3.61a43.87,43.87,0,0,1-8.78-11.05h0a43.68,43.68,0,0,1-5.15-12.94,17.46,17.46,0,0,1-.24-6.1,5.18,5.18,0,0,1,2.19-3.81c2.27-1.32,6.13,0,10.05,3.53a44,44,0,0,1,8.23,10.59,43.24,43.24,0,0,1,5.21,12.66A17.4,17.4,0,0,1,63,75.82a5.41,5.41,0,0,1-2.28,3.9A3.91,3.91,0,0,1,58.68,80.23ZM44,64.66a42.56,42.56,0,0,0,8.39,10.58c3.43,3,6.16,3.59,7.34,2.91s2.12-3.61,1.19-8.3a41.67,41.67,0,0,0-5-12.09A42.14,42.14,0,0,0,48.1,47.62c-3.7-3.29-6.7-4-7.92-3.32a3.55,3.55,0,0,0-1.31,2.54,15.57,15.57,0,0,0,.24,5.44A41.91,41.91,0,0,0,44,64.66Z"/><text class="cls-3" transform="translate(26.7 28.86)">reakt . js</text></g></g></svg>