<svg xmlns="http://www.w3.org/2000/svg" viewBox="0 0 96 96"><defs><style>.cls-1{fill:#ff0042;}.cls-2{fill:#f7f7f7;}</style></defs><title>twitter</title><g id="Lag_2" data-name="Lag 2"><g id="twitter"><circle class="cls-1" cx="48" cy="48" r="48"/><path class="cls-2" d="M72.5,32.71a20,20,0,0,1-5.77,1.6,10.2,10.2,0,0,0,4.42-5.6,20.3,20.3,0,0,1-6.39,2.46A10,10,0,0,0,57.43,28,10.08,10.08,0,0,0,47.37,38.08a10.29,10.29,0,0,0,.26,2.31A28.49,28.49,0,0,1,26.91,29.82,10.17,10.17,0,0,0,30,43.32a9.86,9.86,0,0,1-4.55-1.26v.13a10.09,10.09,0,0,0,8.06,9.91,10,10,0,0,1-2.65.36A10.81,10.81,0,0,1,29,52.28a10.08,10.08,0,0,0,9.39,7A20.09,20.09,0,0,1,25.9,63.63a21.18,21.18,0,0,1-2.4-.14A28.4,28.4,0,0,0,38.91,68c18.49,0,28.6-15.41,28.6-28.77,0-.44,0-.88,0-1.31A20.51,20.51,0,0,0,72.5,32.71Z"/></g></g></svg>